# Blender v2.79 (sub 0) OBJ File: 'newsSec.blend'
# www.blender.org
mtllib newsSec.mtl
o Cube
v -0.397135 0.258883 0.275359
v -0.397135 0.258883 0.824941
v -0.439676 0.258883 0.824941
v -0.439676 0.258883 0.275359
v -0.397134 0.768447 0.275360
v -0.397136 0.768447 0.824942
v -0.439677 0.768447 0.824941
v -0.439676 0.768447 0.275359
vt 0.000000 0.000000
vt 0.000000 0.000000
vt 0.000000 0.000000
vt 0.000000 0.000000
vt 0.000000 0.000000
vt 1.000000 0.000000
vt 1.000000 1.000000
vt 0.000000 1.000000
vt 0.999904 0.000096
vt 0.999904 0.927103
vt 0.000096 0.927104
vt 0.000097 0.000097
vt 0.000000 0.000000
vt 0.000000 0.000000
vt 0.000000 0.000000
vn 0.0000 -1.0000 0.0000
vn 0.0000 1.0000 0.0000
vn 1.0000 0.0000 0.0000
vn -0.0000 -0.0000 1.0000
vn -1.0000 -0.0000 -0.0000
vn 0.0000 0.0000 -1.0000
usemtl Material
s off
f 1/1/1 2/2/1 3/3/1 4/4/1
f 5/5/2 8/6/2 7/7/2 6/8/2
f 1/9/3 5/10/3 6/11/3 2/12/3
f 2/2/4 6/13/4 7/14/4 3/3/4
f 3/3/5 7/14/5 8/15/5 4/4/5
f 5/5/6 1/1/6 4/4/6 8/15/6
