# Blender v2.79 (sub 0) OBJ File: 'untitled.blend'
# www.blender.org
mtllib pinboard3.mtl
o Cube
v 1.897220 -0.821621 -0.056908
v 1.896981 1.050982 -0.033064
v -1.931435 -0.821621 -0.095265
v -1.931674 1.050982 -0.071421
v -1.989741 -0.878380 -0.158096
v 1.973398 -0.878380 -0.118392
v 1.972444 -0.879591 -0.023214
v -1.990695 -0.879591 -0.062919
v -1.989995 1.121458 -0.132633
v 1.973144 1.121458 -0.092928
v 1.972189 1.120246 0.002250
v -1.990949 1.120246 -0.037455
v 1.897836 -0.820837 -0.118416
v -1.930819 -0.820837 -0.156773
v -1.931057 1.051765 -0.132930
v 1.897597 1.051765 -0.094572
vt 0.000000 0.000000
vt 1.000000 0.000000
vt 1.000000 1.000000
vt 0.000000 1.000000
vt 0.000000 0.000000
vt 1.000000 0.000000
vt 1.000000 1.000000
vt 0.000000 1.000000
vt 1.000000 0.000000
vt 1.000000 1.000000
vt 0.000000 1.000000
vt 0.000000 0.000000
vt 1.000000 0.000000
vt 1.000000 1.000000
vt 0.000000 1.000000
vt 0.000000 0.000000
vt 1.000000 0.000000
vt 1.000000 1.000000
vt 0.000000 1.000000
vt 0.500000 1.000000
vt 0.853553 0.853553
vt 1.000000 0.500000
vt 0.853553 0.146447
vt 0.500000 0.000000
vt 0.146447 0.146447
vt 0.000000 0.500000
vt 0.146447 0.853553
vt 0.000000 0.000000
vt 1.000000 0.000000
vt 0.000000 1.000000
vt 0.000000 0.000000
vt 1.000000 0.000000
vt 1.000000 1.000000
vt 1.000000 0.000000
vt 1.000000 1.000000
vt 0.000000 1.000000
vt 0.000000 0.000000
vt 1.000000 0.000000
vt 0.000000 1.000000
vt 0.000000 0.000000
vt 1.000000 0.000000
vt 0.000000 1.000000
vt 0.000000 0.000000
vt 1.000000 1.000000
vt 0.000000 1.000000
vn 0.0100 0.0127 -0.9999
vn 0.9999 0.0000 0.0100
vn -0.0001 0.9999 0.0127
vn 0.0001 -0.9999 -0.0127
vn -0.0100 -0.0127 0.9999
vn -0.9999 0.0000 -0.0100
usemtl Material
s off
f 1/1/1 3/2/1 4/3/1 2/4/1
f 3/5/2 14/6/2 15/7/2 4/8/2
f 3/5/3 1/9/3 13/10/3 14/11/3
f 5/12/4 6/13/4 7/14/4 8/15/4
f 9/16/3 12/17/3 11/18/3 10/19/3
f 5/20/1 9/21/1 15/22/1 14/23/1 13/24/1 16/25/1 10/26/1 6/27/1
f 6/28/2 10/29/2 11/18/2 7/30/2
f 7/31/5 11/32/5 12/33/5 8/15/5
f 9/16/6 5/34/6 8/35/6 12/36/6
f 10/37/1 16/38/1 15/7/1 9/39/1
f 16/40/4 2/41/4 4/3/4 15/42/4
f 13/43/6 1/9/6 2/44/6 16/45/6
