# Blender v2.79 (sub 0) OBJ File: 'untitled.blend'
# www.blender.org
mtllib untitled.mtl
o Cube
v -0.551288 -0.942453 1.311006
v -0.551288 0.930301 1.311006
v -0.551288 -0.942453 -2.517841
v -0.551288 0.930301 -2.517841
v -0.489771 -1.000000 -2.576773
v -0.489771 -1.000000 1.386565
v -0.584961 -1.000000 1.386564
v -0.584961 -1.000000 -2.576774
v -0.489771 1.000000 -2.576773
v -0.489772 1.000000 1.386565
v -0.584962 1.000000 1.386564
v -0.584961 1.000000 -2.576773
v -0.489771 -0.942453 1.311006
v -0.489771 -0.942453 -2.517841
v -0.489771 0.930301 -2.517841
v -0.489772 0.930301 1.311006
vt 0.000000 0.000000
vt 1.000000 0.000000
vt 1.000000 1.000000
vt 0.000000 1.000000
vt 0.000000 0.000000
vt 1.000000 0.000000
vt 1.000000 1.000000
vt 0.000000 1.000000
vt 1.000000 0.000000
vt 1.000000 1.000000
vt 0.000000 1.000000
vt 0.000000 0.000000
vt 1.000000 0.000000
vt 1.000000 1.000000
vt 0.000000 1.000000
vt 0.000000 0.000000
vt 1.000000 0.000000
vt 1.000000 1.000000
vt 0.000000 1.000000
vt 0.500000 1.000000
vt 0.853553 0.853553
vt 1.000000 0.500000
vt 0.853553 0.146447
vt 0.500000 0.000000
vt 0.146447 0.146447
vt 0.000000 0.500000
vt 0.146447 0.853553
vt 0.000000 0.000000
vt 1.000000 0.000000
vt 0.000000 1.000000
vt 0.000000 0.000000
vt 1.000000 0.000000
vt 1.000000 1.000000
vt 1.000000 0.000000
vt 1.000000 1.000000
vt 0.000000 1.000000
vt 0.000000 0.000000
vt 1.000000 0.000000
vt 0.000000 1.000000
vt 0.000000 0.000000
vt 1.000000 0.000000
vt 0.000000 1.000000
vt 0.000000 0.000000
vt 1.000000 1.000000
vt 0.000000 1.000000
vn 1.0000 0.0000 0.0000
vn 0.0000 0.0000 1.0000
vn 0.0000 1.0000 0.0000
vn 0.0000 -1.0000 0.0000
vn -1.0000 -0.0000 -0.0000
vn 0.0000 0.0000 -1.0000
usemtl Material
s off
f 1/1/1 3/2/1 4/3/1 2/4/1
f 3/5/2 14/6/2 15/7/2 4/8/2
f 3/5/3 1/9/3 13/10/3 14/11/3
f 5/12/4 6/13/4 7/14/4 8/15/4
f 9/16/3 12/17/3 11/18/3 10/19/3
f 5/20/1 9/21/1 15/22/1 14/23/1 13/24/1 16/25/1 10/26/1 6/27/1
f 6/28/2 10/29/2 11/18/2 7/30/2
f 7/31/5 11/32/5 12/33/5 8/15/5
f 9/16/6 5/34/6 8/35/6 12/36/6
f 10/37/1 16/38/1 15/7/1 9/39/1
f 16/40/4 2/41/4 4/3/4 15/42/4
f 13/43/6 1/9/6 2/44/6 16/45/6
